# xmcd
#
# Track frame offsets:
#	150
#	15669
#	30720
#	53915
#	75283
#	82016
#	101122
#	115500
#	133448
#	151150
#	161727
#	173795
#	187258
#	203621
#	215559
#	250062
#	269727
#	282326
#	294996
#	310070
#
# Disc length: 4357
#
# Revision: 0
# Processed by: cddbd v1.5.2PL0 Copyright (c) Steve Scherf et al.
# Submitted via: Broken X Disk Manager 4.10.2281
#
DISCID=1e110314
DTITLE=XXX - CCC
DYEAR=1801
DGENRE=Acid Jazz
TTITLE0=1
TTITLE1=2
TTITLE2=1 - 1
TTITLE3=2 - 2
TTITLE4=FSD
TTITLE5=DF
TTITLE6=FSD
TTITLE7=FSADF
TTITLE8=DAFF
TTITLE9=FDF
TTITLE10=FDFD
TTITLE11=FDF
TTITLE12=fDDDDDD
TTITLE13=FDSFSFD
TTITLE14=FSDSFD
TTITLE15=SDFSDF
TTITLE16=FSDFD
TTITLE17=FDSFSD
TTITLE18=FDFSD
TTITLE19=FDSFD
EXTD=
EXTT0=
EXTT1=
EXTT2=
EXTT3=
EXTT4=
EXTT5=
EXTT6=
EXTT7=
EXTT8=
EXTT9=
EXTT10=
EXTT11=
EXTT12=
EXTT13=
EXTT14=
EXTT15=
EXTT16=
EXTT17=
EXTT18=
EXTT19=
PLAYORDER=
